<?xml version="1.0" encoding="UTF-8"?>
<svg id="Layer_2" xmlns="http://www.w3.org/2000/svg" viewBox="0 0 1114.02 888.38">
  <defs>
    <style>
      .cls-1 {
        fill: none;
      }

      .cls-2 {
        fill: #fff8f6;
      }

      .cls-3 {
        fill: #87544d;
      }
    </style>
  </defs>
  <g id="Layer_1-2" data-name="Layer_1">
    <rect class="cls-1" y="0" width="1114.02" height="888.38"/>
    <g>
      <g>
        <path class="cls-2" d="M727.08,436.65s222.43-44.03,224.88-228.38c.07-4.92-2.79-9.41-7.27-11.45-8.2-3.74-20.89-10.88-24.27-20.43-2.53-7.16,2.29-14.99,9.81-16.05.1-.01.2-.03.3-.04,6.8-.85,11.82-6.71,11.14-13.53-1.28-12.65-1.47-30.08,5.12-40.02.21-.32.43-.61.66-.91,8.1-11.03,25.1-29.86,62.87-13.51,19.68,8.52,33.61,24.87,38.59,43.52,5.66,21.21,8.63,56.67-3.13,112.8,0,0-48.71,239.65-332.23,285.64"/>
        <path class="cls-3" d="M713.8,535.9l-.52-3.23c145.84-23.65,228.02-99.68,271.29-159.29,46.91-64.63,59.48-124.46,59.6-125.06,12.02-57.36,8.35-92.59,3.15-112.05-4.94-18.51-19.02-34.37-37.66-42.44-34.93-15.12-51.48.16-60.9,12.97l-.16.22c-.16.21-.31.41-.45.63-6.3,9.51-6.11,26.43-4.85,38.96.77,7.61-4.75,14.33-12.56,15.32l-.3.04c-3.1.44-5.85,2.27-7.51,5.01-1.64,2.71-2,5.95-.96,8.87,3.23,9.14,16.05,16.13,23.4,19.48,5.07,2.31,8.3,7.4,8.22,12.97-1.28,95.98-62.78,153.41-114.14,184.7-55.52,33.81-111.49,45.16-112.05,45.27l-.64-3.21c.55-.11,56.04-11.37,111.07-44.9,50.62-30.85,111.24-87.45,112.49-181.89.06-4.27-2.42-8.17-6.31-9.94-9.56-4.36-21.68-11.6-25.13-21.37-1.36-3.85-.91-8.1,1.25-11.66,2.18-3.59,5.77-5.98,9.87-6.56l.33-.04c6.03-.76,10.3-5.91,9.71-11.74-1.32-13.05-1.45-30.78,5.38-41.09.18-.27.36-.52.55-.77l.15-.21c5.81-7.91,23.5-31.94,64.84-14.04,19.55,8.46,34.33,25.14,39.52,44.6,5.29,19.8,9.04,55.57-3.11,113.56-.12.59-12.79,61.01-60.07,126.2-43.63,60.16-126.49,136.87-273.5,160.72Z"/>
      </g>
      <g>
        <ellipse class="cls-2" cx="512.52" cy="553" rx="426.79" ry="312.28" transform="translate(-81.12 88.16) rotate(-9.11)"/>
        <path class="cls-3" d="M469.74,870.4c-80.05,0-156.3-17.06-220.97-50.12-89.41-45.71-145.98-116.53-159.27-199.42-27.42-170.91,140.04-340.39,373.3-377.81,112.9-18.11,224.23-2.96,313.47,42.67,89.41,45.71,145.98,116.53,159.27,199.42,13.3,82.89-18.28,167.85-88.9,239.23-70.49,71.25-171.49,120.47-284.39,138.58-31.09,4.99-62.08,7.45-92.5,7.46ZM555.3,238.87c-30.26,0-61.06,2.45-91.99,7.41-231.47,37.13-397.71,204.94-370.58,374.06,13.13,81.83,69.07,151.8,157.53,197.03,88.63,45.31,199.24,60.35,311.46,42.35,112.22-18,212.58-66.89,282.59-137.65,69.87-70.62,101.12-154.58,88-236.41h0c-13.13-81.83-69.07-151.8-157.53-197.03-64.2-32.82-139.94-49.76-219.47-49.76Z"/>
      </g>
      <g>
        <path class="cls-2" d="M276.18,510.66s137.98,179.93,304.35,100.49c4.44-2.12,7.2-6.67,7.05-11.59-.28-9.01.5-23.55,7.57-30.8,5.3-5.44,14.45-4.59,18.74,1.69.06.08.11.17.17.25,3.78,5.72,11.25,7.63,17.06,3.99,10.78-6.74,26.32-14.64,38.15-13.14.38.05.74.12,1.11.18,13.48,2.38,37.89,9.28,39.95,50.39,1.08,21.42-7.42,41.15-21.93,53.88-16.51,14.47-46.98,32.83-102.52,47.14,0,0-236.44,62.45-403.23-171.39"/>
        <path class="cls-3" d="M512.52,722.32c-19.43,0-41.8-1.44-65.99-5.56-73.26-12.48-178.74-52.8-265.22-174.05l2.67-1.9c85.79,120.28,190.34,160.3,262.95,172.7,78.73,13.43,137.94-1.78,138.52-1.94,56.76-14.62,86.72-33.52,101.86-46.79,14.4-12.63,22.4-32.27,21.38-52.56-1.91-38.01-22.95-46.09-38.6-48.86l-.25-.04c-.26-.05-.51-.09-.78-.13-11.32-1.44-26.41,6.22-37.08,12.9-6.47,4.05-14.95,2.09-19.29-4.48l1.2-1.16-1.35.92c-1.78-2.6-4.63-4.26-7.83-4.53-3.15-.28-6.22.84-8.38,3.07-6.76,6.95-7.35,21.53-7.1,29.61.17,5.57-2.96,10.72-7.98,13.12-86.62,41.36-165.35,11.65-216.15-20.55-54.9-34.81-89.86-79.97-90.21-80.42l2.6-1.99c.34.45,35.01,45.21,89.44,79.7,50.08,31.73,127.67,61.01,212.9,20.31,3.85-1.84,6.25-5.79,6.12-10.06-.32-10.5.8-24.57,8.03-32,2.85-2.93,6.85-4.41,11.01-4.04,4.18.36,7.92,2.53,10.25,5.95l.19.28c3.35,5.07,9.86,6.61,14.82,3.51,11.12-6.96,26.95-14.93,39.23-13.37.32.04.63.1.95.15l.24.04c9.66,1.71,39.04,6.9,41.31,51.92,1.07,21.28-7.34,41.91-22.49,55.19-15.41,13.51-45.82,32.71-103.19,47.5-.41.11-29.43,7.58-73.76,7.58Z"/>
      </g>
      <path class="cls-3" d="M603.22,469.07c-.17,0-.34-.03-.51-.08-.86-.28-1.33-1.2-1.05-2.06.27-.83,6.7-20.24,20.26-23.1,7.67-1.63,15.89,2.42,24.43,11.98.6.67.54,1.71-.13,2.31-.67.6-1.71.54-2.31-.13-7.7-8.63-14.88-12.32-21.31-10.96-11.72,2.47-17.76,20.72-17.82,20.9-.23.69-.87,1.13-1.56,1.13Z"/>
      <path class="cls-3" d="M664.95,453c-.12,0-.25-.01-.38-.04-.88-.21-1.43-1.09-1.22-1.97.17-.71,4.19-17.45,15.41-20.24,7.15-1.78,15.3,2.55,24.25,12.85.59.68.52,1.72-.16,2.31-.68.59-1.72.52-2.31-.16-8.07-9.29-15.12-13.27-20.98-11.82-9.28,2.3-12.98,17.65-13.02,17.8-.18.75-.85,1.26-1.59,1.26Z"/>
      <path class="cls-3" d="M602.67,515.25c-15.64,0-25.6-1.74-25.9-1.8-.89-.16-1.48-1.02-1.31-1.91s1.01-1.48,1.91-1.31c.9.16,90.43,15.74,156.8-49.18.64-.63,1.68-.62,2.32.03.63.65.62,1.68-.03,2.32-45.49,44.49-101.64,51.85-133.79,51.85Z"/>
      <path class="cls-3" d="M668.68,596.6c-.65,0-1.26-.39-1.52-1.02-.34-.84.07-1.79.9-2.13,13.3-5.37,29.95-17.2,30.12-17.31.74-.53,1.76-.35,2.28.38.53.74.35,1.76-.38,2.28-.69.49-17.14,12.17-30.79,17.68-.2.08-.41.12-.61.12Z"/>
      <path class="cls-3" d="M677.26,618.09c-.65,0-1.26-.39-1.52-1.02-.34-.84.07-1.79.9-2.13,13.29-5.38,29.94-17.22,30.11-17.34.74-.53,1.76-.35,2.28.38s.35,1.76-.38,2.28c-.69.49-17.13,12.18-30.78,17.71-.2.08-.41.12-.61.12Z"/>
      <path class="cls-3" d="M977.68,122.62c-.11,0-.22-.01-.32-.03-.89-.18-1.46-1.04-1.28-1.93,2.82-14.06,2.11-34.48,2.1-34.68-.03-.9.67-1.66,1.58-1.7.85-.11,1.66.67,1.7,1.58.03.85.74,21-2.16,35.44-.16.78-.84,1.32-1.6,1.32Z"/>
      <path class="cls-3" d="M1000.35,127.27c-.11,0-.22-.01-.32-.03-.89-.18-1.46-1.04-1.28-1.93,2.81-14.06,2.08-34.48,2.07-34.68-.03-.9.67-1.66,1.57-1.7.94-.11,1.67.67,1.7,1.57.03.85.75,21.01-2.13,35.45-.16.78-.84,1.32-1.6,1.32Z"/>
    </g>
  </g>
</svg>