<?xml version="1.0" encoding="UTF-8"?>
<svg id="Layer_2" xmlns="http://www.w3.org/2000/svg" viewBox="0 0 1114.02 935.17">
  <defs>
    <style>
      .cls-1 {
        fill: none;
      }

      .cls-2 {
        fill: #fff8f6;
      }

      .cls-3 {
        fill: #87544d;
      }
    </style>
  </defs>
  <g id="Layer_1-2" data-name="Layer_1">
    <rect class="cls-1" width="1114.02" height="935.17"/>
    <g>
      <g>
        <path class="cls-2" d="M928.34,522.4s56.49-237.84-123.18-322.85c-4.8-2.27-10.48-1.48-14.49,2-7.34,6.37-20.03,15.61-30.9,14.64-8.16-.73-13.67-8.96-11.34-16.81.03-.1.06-.21.1-.31,2.21-7.05-1.28-14.6-8.27-16.98-12.97-4.42-30.15-12.03-36.96-22.95-.22-.35-.4-.7-.6-1.06-7.18-12.89-18.04-37.99,14.93-67.7,17.17-15.48,39.45-21.81,59.97-18.34,23.33,3.95,59.43,16.93,109.21,53.62,0,0,213.17,155.16,131.22,453.78"/>
        <path class="cls-3" d="M1019.72,579.89l-3.41-.93c42.18-153.68,4.41-268.38-34.71-337.54-42.37-74.92-95.31-113.96-95.84-114.35-50.86-37.49-87.06-49.68-108.46-53.3-20.36-3.44-42.23,3.25-58.5,17.91-30.48,27.48-22.91,50.56-14.56,65.53l.11.21c.14.26.28.51.44.77,6.5,10.44,23.18,17.84,36.03,22.22,7.8,2.66,11.93,11.08,9.39,19.18l-.09.28c-.97,3.27-.41,6.78,1.54,9.65,1.92,2.83,4.94,4.62,8.27,4.92,10.38.93,23.01-8.51,29.59-14.22,4.54-3.94,10.98-4.82,16.4-2.26,93.54,44.26,122.31,130.3,129.97,194.69,8.28,69.59-5.68,129.57-5.82,130.16l-3.43-.81c.14-.59,13.96-60.04,5.74-129.03-7.57-63.47-35.91-148.27-127.95-191.82-4.16-1.97-9.1-1.29-12.58,1.73-8.56,7.42-21.12,16.07-32.22,15.07-4.39-.39-8.35-2.74-10.87-6.45-2.54-3.74-3.27-8.34-2-12.62l.11-.36c1.95-6.24-1.19-12.73-7.16-14.76-13.39-4.56-30.83-12.37-37.89-23.69-.19-.31-.37-.62-.54-.94-5.25-9.43-20.91-37.53,15.18-70.06,17.06-15.38,40.04-22.4,61.45-18.77,21.79,3.69,58.55,16.04,109.96,53.94.53.38,54.09,39.88,96.83,115.46,39.44,69.74,77.54,185.37,35.04,340.21Z"/>
      </g>
      <g>
        <ellipse class="cls-2" cx="576.05" cy="563.96" rx="460.13" ry="336.67" transform="translate(-82.06 98.37) rotate(-9.11)"/>
        <path class="cls-3" d="M530.79,906.08c-210,0-385.18-109.24-410.81-268.95-14.34-89.36,19.7-180.96,95.85-257.93,76-76.82,184.89-129.88,306.61-149.4,121.72-19.53,241.75-3.2,337.96,46,96.4,49.28,157.38,125.64,171.72,215,29.56,184.26-150.98,366.99-402.46,407.33-33.49,5.37-66.61,7.95-98.87,7.95ZM622.19,225.29c-32.63,0-65.83,2.64-99.18,7.99-120.99,19.41-229.18,72.11-304.66,148.4-75.33,76.14-109.02,166.66-94.87,254.88,29.25,182.34,256.08,298.09,505.63,258.08,249.55-40.04,428.78-220.95,399.53-403.28-14.16-88.22-74.47-163.66-169.84-212.42-69.22-35.38-150.87-53.65-236.61-53.65Z"/>
      </g>
      <path class="cls-3" d="M659.93,498.66c-11.56,0-23.25-8.04-23.86-8.46-.8-.56-1-1.66-.44-2.46.56-.8,1.66-1,2.46-.44.17.12,17.26,11.87,28.93,6.35,6.41-3.03,10.17-10.87,11.16-23.29.08-.97.96-1.67,1.9-1.62.97.08,1.7.93,1.62,1.9-1.1,13.78-5.54,22.6-13.19,26.2-2.73,1.29-5.66,1.81-8.59,1.81Z"/>
      <path class="cls-3" d="M719.8,472.27c-9.9,0-19.83-8.13-20.33-8.55-.75-.62-.85-1.74-.23-2.49.62-.75,1.73-.86,2.49-.23.13.11,13.31,10.9,22.78,6.82,5.97-2.56,9.44-10.58,10.33-23.82.06-.97.98-1.69,1.88-1.64.97.06,1.71.91,1.64,1.88-.99,14.68-5.18,23.71-12.47,26.83-1.97.85-4.03,1.2-6.09,1.2Z"/>
      <path class="cls-3" d="M648.82,508.73c-.15,0-.29-.02-.44-.06-.94-.24-1.51-1.2-1.27-2.15l2.59-10.07c.24-.95,1.22-1.5,2.15-1.27.94.24,1.51,1.2,1.27,2.15l-2.59,10.07c-.2.8-.92,1.33-1.71,1.33Z"/>
      <path class="cls-3" d="M666.88,509.79c-.81,0-1.54-.56-1.72-1.39l-2.51-11.39c-.21-.95.39-1.89,1.34-2.1.93-.21,1.89.39,2.1,1.34l2.51,11.39c.21.95-.39,1.89-1.34,2.1-.13.03-.26.04-.38.04Z"/>
      <path class="cls-3" d="M683.38,498.29c-.42,0-.85-.15-1.18-.46l-8.55-7.72c-.72-.65-.78-1.77-.13-2.49.65-.73,1.77-.78,2.49-.13l8.55,7.72c.72.65.78,1.77.13,2.49-.35.39-.83.58-1.31.58Z"/>
      <path class="cls-3" d="M709.88,482.88c-.21,0-.42-.04-.63-.11-.91-.34-1.37-1.36-1.03-2.28l3.68-9.73c.34-.91,1.36-1.37,2.28-1.03.91.34,1.37,1.36,1.03,2.28l-3.68,9.73c-.27.71-.94,1.14-1.65,1.14Z"/>
      <path class="cls-3" d="M728.48,484.11c-.81,0-1.54-.56-1.72-1.39l-2.51-11.39c-.21-.95.39-1.89,1.34-2.1.93-.21,1.89.39,2.1,1.34l2.51,11.39c.21.95-.39,1.89-1.34,2.1-.13.03-.26.04-.38.04Z"/>
      <path class="cls-3" d="M744.13,469.74c-.33,0-.66-.09-.96-.28l-9.67-6.26c-.82-.53-1.05-1.63-.52-2.44.53-.82,1.63-1.05,2.44-.52l9.67,6.26c.82.53,1.05,1.63.52,2.44-.34.52-.91.8-1.49.8Z"/>
      <g>
        <ellipse class="cls-2" cx="723.62" cy="540.28" rx="35.76" ry="22.28" transform="translate(-158.3 346.01) rotate(-24.32)"/>
        <path class="cls-3" d="M712.06,567.09c-10.58,0-19.29-3.95-22.63-11.35-5.46-12.08,5.43-28.84,24.29-37.37,18.85-8.52,38.63-5.63,44.1,6.46,2.71,6,1.58,13.24-3.19,20.38-4.6,6.89-12.09,12.92-21.09,16.99-7.31,3.3-14.76,4.89-21.46,4.89ZM735.38,516.94c-6.23,0-13.27,1.52-20.21,4.65-17.08,7.72-27.18,22.39-22.52,32.7,4.66,10.31,22.34,12.41,39.42,4.69,8.41-3.8,15.37-9.38,19.61-15.73,4.07-6.09,5.1-12.11,2.91-16.96h0c-2.77-6.12-10.12-9.35-19.21-9.35Z"/>
      </g>
      <g>
        <path class="cls-2" d="M321.27,649.18s-165.03-180.34-49.39-342c3.09-4.32,8.43-6.39,13.63-5.3,9.51,1.99,25.09,3.9,34.12-2.24,6.77-4.6,7.59-14.48,1.74-20.21-.08-.08-.16-.15-.24-.23-5.36-5.09-5.98-13.38-1.03-18.86,9.19-10.17,20.5-25.18,21.13-38.03.02-.41.01-.8.01-1.21,0-14.75-2.72-41.97-45.97-51.9-22.53-5.17-45.08.13-61.32,13.14-18.47,14.8-43.7,43.7-69.35,99.96,0,0-110.8,239.25,106.04,460.31"/>
        <path class="cls-3" d="M269.39,743.86c-112.44-114.63-135.39-234.19-134.84-314.31.59-86.82,28.18-147.38,28.46-147.99,26.49-58.11,52.6-86.78,69.84-100.6,16.95-13.59,40.43-18.63,62.82-13.49,47.36,10.87,47.34,43.05,47.34,53.62v.25c0,.35,0,.69-.01,1.05-.66,13.33-12.1,28.63-21.58,39.13-4.23,4.68-3.82,11.88.93,16.39l.2.19c3.25,3.18,4.85,7.56,4.45,12.07-.4,4.46-2.72,8.45-6.36,10.93-9.24,6.28-24.39,4.82-35.48,2.5-4.51-.95-9.16.86-11.83,4.6-59.24,82.82-42.77,170.7-18.51,229.83,26.36,64.28,67.36,109.5,67.77,109.95l-2.6,2.38c-.41-.45-41.78-46.07-68.39-110.9-24.62-59.98-41.34-149.16,18.87-233.32,3.49-4.88,9.55-7.23,15.43-6.01,8.53,1.79,24.12,3.9,32.77-1.97,2.77-1.88,4.53-4.91,4.83-8.32.31-3.45-.91-6.79-3.34-9.16l-.22-.21c-6.16-5.84-6.65-15.21-1.12-21.32,9.1-10.07,20.07-24.65,20.68-36.93.01-.29.01-.57.01-.87v-.26c0-17.14-4.61-40.99-44.6-50.17-21.35-4.91-43.71-.12-59.82,12.8-16.94,13.58-42.64,41.83-68.84,99.32-.28.6-27.59,60.59-28.14,146.69-.51,79.41,22.3,197.94,133.84,311.65l-2.52,2.47Z"/>
      </g>
    </g>
  </g>
</svg>