<?xml version="1.0" encoding="UTF-8"?>
<svg id="Layer_2" xmlns="http://www.w3.org/2000/svg" viewBox="0 0 1114.02 368.19">
  <defs>
    <style>
      .cls-1 {
        fill: none;
      }

      .cls-2 {
        fill: #fff8f6;
      }

      .cls-3 {
        fill: #87544d;
      }
    </style>
  </defs>
  <g id="Layer_1-2" data-name="Layer_1">
    <rect class="cls-1" y="0" width="1114.02" height="368.19"/>
    <g>
      <g>
        <ellipse class="cls-2" cx="722.17" cy="191.1" rx="221.31" ry="161.93" transform="translate(-21.15 116.8) rotate(-9.11)"/>
        <path class="cls-3" d="M699.99,356.89c-41.7,0-81.43-8.89-115.13-26.12-46.71-23.88-76.27-60.92-83.23-104.29-14.32-89.28,72.96-177.78,194.57-197.29,58.8-9.43,116.78-1.53,163.28,22.24,46.72,23.88,76.27,60.92,83.23,104.29,14.32,89.28-72.96,177.78-194.57,197.29-16.18,2.6-32.31,3.88-48.15,3.88ZM744.36,29.42c-15.63,0-31.54,1.27-47.51,3.83-119.37,19.15-205.12,105.54-191.16,192.58,6.74,42.04,35.53,78.01,81.04,101.28,45.73,23.38,102.82,31.14,160.76,21.84,119.37-19.15,205.12-105.54,191.16-192.58-6.75-42.04-35.53-78.01-81.04-101.28-33.12-16.93-72.2-25.67-113.25-25.67Z"/>
      </g>
      <path class="cls-3" d="M779.01,133.54c-4.57,0-8.96-2.95-9.57-3.37-.93-.65-1.16-1.93-.51-2.86.65-.93,1.93-1.16,2.86-.52,1.58,1.09,6.31,3.62,9.25,2.22,2.33-1.1,3.08-4.64,3.31-7.41.09-1.13,1.11-1.95,2.21-1.89,1.13.09,1.98,1.08,1.89,2.21-.45,5.61-2.35,9.25-5.66,10.81-1.22.58-2.51.81-3.78.81Z"/>
      <path class="cls-3" d="M801.46,123.82c-4.2,0-8.19-3.02-8.73-3.44-.89-.7-1.05-1.99-.35-2.88.7-.89,1.99-1.05,2.89-.35,1.2.94,5.18,3.37,7.62,2.29,2.17-.96,2.87-4.63,3.07-7.53.08-1.13,1.08-2,2.2-1.91,1.13.08,1.99,1.06,1.91,2.2-.42,5.86-2.27,9.56-5.51,11-1.01.45-2.05.63-3.08.63Z"/>
      <path class="cls-3" d="M781.14,149.92c-.14,0-.23,0-.27,0-1.13-.03-2.03-.97-2-2.1.03-1.13,1.04-2.03,2.1-2.01.14-.03,18.68.2,32.56-15.69.74-.86,2.05-.94,2.9-.2.86.75.94,2.05.2,2.9-14.42,16.5-32.92,17.1-35.48,17.1Z"/>
      <path class="cls-3" d="M717.71,218.16c-6.78,0-13.98-.72-21.32-2.56-1.1-.28-1.77-1.39-1.5-2.49.27-1.1,1.39-1.77,2.49-1.5,23.11,5.78,44.86-.02,55.76-3.99,6.35-2.31,11.28-6.64,13.89-12.19,1.93-4.1,2.41-8.28,1.45-12.43-2.05-8.78-10.51-15.08-19.96-14.85-7.51.14-14.42,1.96-14.49,1.98-1.11.29-2.22-.36-2.52-1.46-.29-1.1.36-2.22,1.45-2.52.3-.08,7.44-1.97,15.47-2.12.15,0,.31,0,.46,0,11.25,0,21.12,7.52,23.58,18.04,1.18,5.07.6,10.15-1.73,15.11-3.07,6.54-8.83,11.62-16.2,14.3-7.9,2.88-21.29,6.68-36.85,6.68Z"/>
      <path class="cls-3" d="M868.42,154.37c-2.42,0-4.84-.41-7.19-1.24-6.48-2.29-11.47-7.34-13.69-13.86-6.38-18.76,3.39-31.63,3.81-32.17.69-.89,1.98-1.06,2.89-.36.89.7,1.06,1.98.36,2.88h0c-.36.47-8.81,11.74-3.17,28.32,1.81,5.32,5.88,9.44,11.17,11.31,5.05,1.79,10.51,1.19,14.98-1.63.95-.62,2.41-.47,3.03.48s.54,2.11-.42,2.73l-.25.16c-3.56,2.25-7.52,3.38-11.52,3.38Z"/>
    </g>
  </g>
</svg>