<?xml version="1.0" encoding="UTF-8"?>
<svg id="Layer_2" xmlns="http://www.w3.org/2000/svg" viewBox="0 0 1114.02 277.83">
  <defs>
    <style>
      .cls-1 {
        fill: none;
      }

      .cls-2 {
        fill: #fff8f6;
      }

      .cls-3 {
        fill: #87544d;
      }
    </style>
  </defs>
  <g id="Layer_1-2" data-name="Layer_1">
    <rect class="cls-1" width="1114.02" height="277.83"/>
    <g>
      <g>
        <ellipse class="cls-2" cx="800.89" cy="139.16" rx="156.65" ry="114.62" transform="translate(-11.93 128.62) rotate(-9.11)"/>
        <path class="cls-3" d="M785.52,257.48c-72.4,0-132.85-37.83-141.72-93.12-10.22-63.74,51.93-126.9,138.55-140.79,41.82-6.71,83.09-1.09,116.19,15.84,33.36,17.05,54.47,43.53,59.44,74.55h0c4.98,31.02-6.79,62.77-33.14,89.4-26.15,26.43-63.58,44.68-105.41,51.39-11.49,1.84-22.85,2.73-33.92,2.73ZM816.6,25.71c-11.01,0-22.22.89-33.48,2.7-83.95,13.47-144.28,74.11-134.49,135.18,9.8,61.07,86.07,99.82,170.02,86.33,40.8-6.55,77.28-24.3,102.7-50,25.22-25.49,36.51-55.74,31.79-85.18h0c-4.72-29.44-24.91-54.64-56.84-70.96-23.3-11.91-50.81-18.06-79.71-18.06Z"/>
      </g>
      <path class="cls-3" d="M828.53,99.57c-.58,0-.94-.02-1.01-.03-1.35-.08-2.37-1.24-2.29-2.59.08-1.35,1.19-2.41,2.59-2.3.1,0,9.79.5,16.26-5.39,1-.91,2.55-.84,3.46.17.91,1,.84,2.55-.17,3.46-6.74,6.13-15.82,6.68-18.84,6.68Z"/>
      <path class="cls-3" d="M854.72,89.47c-.51,0-.82-.02-.89-.03-1.35-.1-2.36-1.28-2.26-2.63.1-1.35,1.25-2.34,2.62-2.26.18,0,7.98.43,13.23-5.24.92-.99,2.47-1.05,3.46-.13.99.92,1.05,2.47.13,3.46-5.8,6.26-13.66,6.82-16.29,6.82Z"/>
      <path class="cls-3" d="M860.7,120.11c-5.04,0-9.13-4.1-9.13-9.13s4.1-9.13,9.13-9.13,9.13,4.1,9.13,9.13-4.1,9.13-9.13,9.13ZM860.7,106.74c-2.33,0-4.23,1.9-4.23,4.23s1.9,4.23,4.23,4.23,4.23-1.9,4.23-4.23-1.9-4.23-4.23-4.23Z"/>
    </g>
  </g>
</svg>