<?xml version="1.0" encoding="UTF-8"?>
<svg id="Layer_2" xmlns="http://www.w3.org/2000/svg" viewBox="0 0 185.81 232.3">
  <defs>
    <style>
      .cls-1 {
        fill: #fff;
      }

      .cls-2 {
        fill: #2dbd8f;
      }
    </style>
  </defs>
  <g id="Layer_1-2" data-name="Layer_1">
    <path class="cls-2" d="M184.51,94.9C176.11,42.51,128.79,4.79,71.68,0h-24.7c-3.89.32-7.8.78-11.73,1.41C22.78,3.41,10.97,6.88,0,11.56v212.61c21.84,7.74,46.57,10.28,71.98,6.2,72.29-11.6,122.67-72.25,112.53-135.48Z"/>
    <path class="cls-1" d="M87.89,65.6c-4.45-1.47-7.71-6-8.15-6.64-.68-.98-.46-2.41.5-3.18.96-.77,2.29-.6,2.97.38,1.16,1.66,4.89,5.85,8.25,5.32,2.66-.41,4.62-3.9,5.81-6.75.49-1.16,1.75-1.72,2.82-1.27,1.07.46,1.55,1.78,1.07,2.94-2.39,5.77-5.52,8.99-9.28,9.57-1.39.21-2.73.04-3.97-.37Z"/>
    <path class="cls-1" d="M113.16,62.6c-4.1-1.35-6.93-5.82-7.31-6.44-.63-1.03-.32-2.43.67-3.15.99-.72,2.31-.47,2.93.56.85,1.37,3.88,5.21,6.63,4.86,2.45-.32,4.41-3.95,5.62-6.94.47-1.17,1.75-1.75,2.8-1.3,1.08.45,1.57,1.76,1.09,2.93-2.45,6.04-5.55,9.35-9.21,9.81-1.14.14-2.22,0-3.23-.33Z"/>
    <path class="cls-1" d="M84.25,83.56c-.14-.04-.22-.08-.27-.09-1.09-.39-1.64-1.68-1.22-2.86.42-1.19,1.77-1.8,2.75-1.44.27.11,18.17,6.22,37.22-6.03,1.02-.66,2.33-.33,2.9.73.57,1.06.21,2.46-.82,3.12-19.81,12.75-38.05,7.4-40.55,6.58Z"/>
  </g>
</svg>