<?xml version="1.0" encoding="UTF-8"?>
<svg id="Layer_2" xmlns="http://www.w3.org/2000/svg" viewBox="0 0 2211.48 468.68">
  <defs>
    <style>
      .cls-1 {
        fill: #ffc6b9;
      }

      .cls-2 {
        fill: #fde4dd;
      }
    </style>
  </defs>
  <g id="Layer_1-2" data-name="Layer_1">
    <g>
      <path class="cls-2" d="M2211.48,468.68C2037.36,194.17,1607.92,0,1105.74,0S174.12,194.17,0,468.68h2211.48Z"/>
      <path class="cls-1" d="M1097.92,79.31l-16.42-15.31,14.39-12.53c2.29-1.99,2.53-5.47.54-7.76-2-2.29-5.47-2.53-7.76-.54l-15.26,13.28-15.28-14.24c-2.22-2.07-5.7-1.95-7.77.27-2.07,2.22-1.95,5.7.27,7.77l14.44,13.46-16.2,14.1c-2.29,1.99-2.53,5.47-.54,7.76,1.09,1.25,2.61,1.89,4.15,1.89,1.28,0,2.57-.45,3.61-1.35l17.07-14.86,17.26,16.09c1.06.99,2.41,1.48,3.75,1.48,1.47,0,2.94-.59,4.02-1.75,2.07-2.22,1.95-5.7-.27-7.77Z"/>
    </g>
  </g>
</svg>