<?xml version="1.0" encoding="UTF-8"?>
<svg id="Layer_2" xmlns="http://www.w3.org/2000/svg" viewBox="0 0 1114.02 669.22">
  <defs>
    <style>
      .cls-1 {
        fill: none;
      }

      .cls-2 {
        fill: #fff8f6;
      }

      .cls-3 {
        fill: #87544d;
      }
    </style>
  </defs>
  <g id="Layer_1-2" data-name="Layer_1">
    <rect class="cls-1" width="1114.02" height="669.22"/>
    <g>
      <g>
        <ellipse class="cls-2" cx="651.23" cy="332.12" rx="391.47" ry="286.43" transform="translate(-44.39 107.35) rotate(-9.11)"/>
        <path class="cls-3" d="M612.73,623.63c-178.89.01-328.12-93.09-349.96-229.2-25.19-157.01,128.58-312.7,342.78-347.06,214.18-34.35,408.94,65.42,434.13,222.43,25.19,157.01-128.58,312.7-342.77,347.06-28.51,4.57-56.71,6.77-84.18,6.77ZM689.8,44.5c-27.3,0-55.29,2.18-83.63,6.73-212.07,34.02-364.38,187.7-339.53,342.58,21.53,134.18,169.08,225.91,346.02,225.92,27.3,0,55.28-2.18,83.63-6.73,212.07-34.02,364.38-187.7,339.54-342.58h0c-21.53-134.18-169.08-225.92-346.02-225.92Z"/>
      </g>
      <path class="cls-3" d="M722.6,277.01c-10,0-20.04-6.91-20.57-7.28-.89-.62-1.1-1.83-.49-2.72.61-.88,1.83-1.1,2.72-.49.14.1,14.48,9.95,24.17,5.37,5.3-2.51,8.41-9.05,9.24-19.44.09-1.08,1.04-1.83,2.1-1.79,1.08.09,1.88,1.03,1.79,2.1-.95,11.9-4.81,19.52-11.48,22.67-2.39,1.12-4.94,1.57-7.49,1.57Z"/>
      <path class="cls-3" d="M773.54,254.56c-8.6,0-17.17-7.01-17.6-7.37-.83-.69-.94-1.92-.25-2.75s1.92-.95,2.75-.26c.11.09,11.12,9.09,18.92,5.73,4.91-2.11,7.77-8.8,8.52-19.88.07-1.08,1.01-1.87,2.08-1.82,1.08.07,1.89,1,1.82,2.08-.85,12.67-4.51,20.48-10.88,23.21-1.73.75-3.54,1.05-5.35,1.05Z"/>
      <path class="cls-3" d="M713.14,285.58c-.16,0-.33-.02-.49-.06-1.05-.27-1.67-1.33-1.41-2.38l2.2-8.57c.27-1.05,1.35-1.66,2.38-1.41,1.05.27,1.67,1.33,1.41,2.38l-2.2,8.57c-.23.88-1.02,1.47-1.89,1.47Z"/>
      <path class="cls-3" d="M728.5,286.49c-.9,0-1.7-.62-1.91-1.53l-2.13-9.69c-.23-1.05.44-2.1,1.49-2.33,1.04-.23,2.1.43,2.33,1.49l2.13,9.69c.23,1.05-.44,2.1-1.49,2.33-.14.03-.28.05-.42.05Z"/>
      <path class="cls-3" d="M742.54,276.7c-.47,0-.94-.17-1.31-.5l-7.27-6.56c-.8-.72-.86-1.96-.14-2.76.72-.8,1.96-.87,2.76-.14l7.27,6.56c.8.72.86,1.96.14,2.76-.38.43-.92.64-1.45.64Z"/>
      <path class="cls-3" d="M765.09,263.59c-.23,0-.46-.04-.69-.13-1.01-.38-1.52-1.51-1.13-2.52l3.13-8.28c.38-1.01,1.5-1.52,2.52-1.13,1.01.38,1.52,1.51,1.13,2.52l-3.13,8.28c-.3.78-1.04,1.26-1.83,1.26Z"/>
      <path class="cls-3" d="M780.91,264.64c-.9,0-1.7-.62-1.91-1.53l-2.14-9.69c-.23-1.05.43-2.1,1.49-2.33,1.03-.23,2.1.43,2.33,1.49l2.14,9.69c.23,1.05-.43,2.1-1.49,2.33-.14.03-.28.05-.42.05Z"/>
      <path class="cls-3" d="M794.23,252.42c-.36,0-.73-.1-1.06-.32l-8.22-5.33c-.91-.59-1.16-1.8-.57-2.7.59-.9,1.8-1.17,2.7-.57l8.22,5.33c.91.59,1.16,1.8.57,2.7-.37.58-1,.89-1.64.89Z"/>
      <g>
        <path class="cls-2" d="M721.38,313.46s5.64,7.5,16.07,13.54c27.69,16.02,63.6-.48,69.12-31.99,1.02-5.79,1.4-12.41.87-19.95"/>
        <path class="cls-3" d="M760.58,335.13c-8.38,0-16.7-2.16-24.1-6.44-10.65-6.16-16.42-13.74-16.66-14.06-.65-.86-.47-2.09.39-2.74.87-.65,2.09-.47,2.74.38.06.07,5.56,7.28,15.49,13.02,12.53,7.25,27.94,7.87,41.23,1.67,13.37-6.24,22.48-18.01,24.99-32.31,1.05-5.99,1.33-12.55.84-19.48-.08-1.08.73-2.01,1.81-2.09,1.03-.06,2.01.73,2.09,1.81.52,7.25.22,14.12-.89,20.43-2.73,15.57-12.64,28.39-27.19,35.17-6.6,3.08-13.69,4.61-20.74,4.61Z"/>
      </g>
      <g>
        <path class="cls-2" d="M988.52,178.19s95.49,20.74,96.41,99.27c0,0,5.52,87.74-197.06,96.95,0,0-47.67,0-53.63-36.42-.84-5.16-.59-10.47.56-15.57,2.5-11.05,10.22-29.63,33.73-26.71,0,0-13.21-10.97-5.56-21.71,1.94-2.73,4.87-4.59,8.07-5.59,7.21-2.26,22.57-4.44,39.85,9.05,0,0,81.03,7,103.13-25.84"/>
        <path class="cls-3" d="M887.96,376.36c-.78,0-49.51-.51-55.65-38.05-.87-5.29-.67-10.78.59-16.32,2.01-8.89,8.93-28.44,30.72-28.53-4.15-5.17-7.56-13.12-2.24-20.58,2.09-2.93,5.23-5.12,9.08-6.32,7.82-2.45,23.53-4.5,41.17,9.01,7.2.53,80.52,5.07,100.78-25.02.6-.89,1.81-1.14,2.71-.53.9.6,1.13,1.82.53,2.71-9.51,14.12-30.12,22.9-61.28,26.08-22.94,2.35-43.44.63-43.65.61-.38-.03-.74-.17-1.03-.4-16.43-12.82-30.9-10.97-38.07-8.72-2.11.66-5.05,2.04-7.06,4.86-6.5,9.12,4.74,18.67,5.22,19.07.67.55.89,1.48.54,2.28-.34.8-1.16,1.28-2.03,1.16-21.92-2.72-29.19,14.62-31.58,25.2-1.14,5.05-1.33,10.04-.54,14.83,5.63,34.38,51.25,34.78,51.71,34.78,109.74-4.99,157.26-33.31,177.78-56.18,18.25-20.35,17.34-38.51,17.33-38.69-.9-76.19-93.94-97.28-94.87-97.48-1.05-.23-1.72-1.27-1.5-2.33.23-1.06,1.27-1.7,2.33-1.5.97.21,97.02,21.98,97.95,101.16.05.71,1.02,19.89-18.32,41.44-38.09,42.46-119.23,54.69-180.6,57.48h0Z"/>
      </g>
      <g>
        <path class="cls-2" d="M468.1,343.07s-244.24,33.44-321.04-56.66c0,0,4.8-21.13-16.8-23.76,0,0-7.2-.88-12.8,8.77,0,0-1.58-1.73-4.33-4.08-21.48-18.29-55.49-10.08-64.64,16.61-3.88,11.32-3.3,26.13,8.77,44.41,7.49,11.36,17.52,20.78,28.92,28.21,44.22,28.81,169.52,115.04,410.66,66.92"/>
        <path class="cls-3" d="M359.25,439.8c-149.34,0-234.34-55.57-271.31-79.73l-2.84-1.85c-12.23-7.97-22.15-17.64-29.49-28.77-10.83-16.41-13.85-31.93-8.98-46.12,4.45-12.96,14.72-22.51,28.19-26.2,13.88-3.79,28.68-.53,39.57,8.74,1.1.94,2.02,1.78,2.74,2.46,5.95-8.39,13.05-7.65,13.37-7.6,6.96.85,12.12,3.6,15.34,8.17,4.46,6.34,3.75,14.2,3.32,16.96,75.9,87.39,316.26,55.62,318.69,55.29,1.05-.16,2.05.6,2.2,1.67.15,1.07-.6,2.05-1.67,2.2-.61.08-62.05,8.36-132.07,5.47-64.86-2.66-150.6-15.72-190.73-62.8-.4-.47-.55-1.1-.42-1.7.02-.08,1.86-8.65-2.53-14.87-2.56-3.62-6.8-5.82-12.6-6.52-.23-.02-6.06-.48-10.87,7.81-.31.54-.86.89-1.48.96-.62.07-1.23-.17-1.65-.62-.02-.02-1.54-1.68-4.16-3.91-9.91-8.44-23.37-11.41-36-7.95-12.2,3.34-21.5,11.98-25.52,23.7-4.45,12.99-1.58,27.36,8.55,42.7,7.04,10.67,16.58,19.97,28.36,27.65l2.84,1.85c46.77,30.56,170.99,111.75,406.37,64.79,1.06-.21,2.09.47,2.3,1.53.21,1.06-.48,2.09-1.53,2.3-51.05,10.19-96.94,14.38-137.95,14.38Z"/>
      </g>
    </g>
  </g>
</svg>