<?xml version="1.0" encoding="UTF-8"?>
<svg id="Layer_2" xmlns="http://www.w3.org/2000/svg" viewBox="0 0 1114.02 507.31">
  <defs>
    <style>
      .cls-1 {
        fill: none;
      }

      .cls-2 {
        fill: #fff8f6;
      }

      .cls-3 {
        fill: #87544d;
      }
    </style>
  </defs>
  <g id="Layer_1-2" data-name="Layer_1">
    <rect class="cls-1" width="1114.02" height="507.31"/>
    <g>
      <g>
        <ellipse class="cls-2" cx="628.25" cy="262.54" rx="306.91" ry="224.56" transform="translate(-33.65 102.83) rotate(-9.11)"/>
        <path class="cls-3" d="M597.49,491.66c-57.71,0-112.68-12.3-159.3-36.14-64.55-33-105.39-84.16-115-144.05-19.79-123.38,100.96-245.71,269.17-272.69,168.2-26.98,321.17,51.44,340.96,174.81,9.61,59.89-13.18,121.25-64.17,172.79-50.82,51.37-123.63,86.85-205,99.9-22.4,3.59-44.73,5.37-66.65,5.37ZM658.5,37.56c-21.38,0-43.3,1.71-65.5,5.27-165.98,26.63-285.2,146.85-265.77,267.99,9.39,58.56,49.46,108.65,112.82,141.05,63.57,32.5,142.92,43.29,223.44,30.37,80.52-12.92,152.52-47.98,202.73-98.74,50.05-50.58,72.43-110.69,63.04-169.26-16.84-104.94-132.29-176.68-270.76-176.68Z"/>
      </g>
      <g>
        <path class="cls-2" d="M840.47,156.89s.27,32.31-76.58,81.76c0,0-11.87-8.27-26.84,4.32-4.37,3.67-7.72,8.34-10.11,13.39-5.43,11.44-14.12,35.92-3.42,59.28,0,0,8.26,20.79,48.09,9.9,0,0,78.08-22.01,108.4-131.02"/>
        <path class="cls-3" d="M750.54,330.76c-22.89,0-28.64-13.64-28.93-14.37-10.86-23.71-2.49-48.35,3.48-60.92,2.69-5.66,6.27-10.4,10.65-14.08,13.14-11.05,24.42-6.98,28.08-5.14,73.53-47.61,74.6-79.06,74.6-79.37,0-1.13.92-2.04,2.05-2.04h0c1.13,0,2.04.9,2.05,2.02.01,1.37-.61,34.01-77.51,83.51l-1.16.74-1.13-.78c-.43-.29-10.85-7.15-24.35,4.2-3.93,3.3-7.15,7.57-9.58,12.7-5.65,11.92-13.62,35.25-3.41,57.55.36.86,8.32,19,45.69,8.77.76-.21,77.34-23.06,106.97-129.6.3-1.09,1.42-1.73,2.53-1.43,1.09.3,1.73,1.43,1.43,2.53-15.81,56.83-44.75,89.79-66.25,107.43-23.37,19.18-42.76,24.79-43.58,25.02-8.51,2.33-15.65,3.26-21.63,3.26Z"/>
      </g>
      <g>
        <path class="cls-2" d="M484.82,252.84s107.09,34.69,197.91,23.5c0,0,3.99-15.34,23.54-15,5.7.1,11.25,1.76,16.3,4.41,11.43,6.01,33.62,20.91,40.07,48.35,0,0,8.39,33.57-31.05,41.97,0,0-154.44,27.7-246.76-44.48"/>
        <path class="cls-3" d="M662.57,363.18c-53.3,0-126.43-8.87-179.01-49.98-.89-.7-1.05-1.99-.35-2.88.7-.89,1.98-1.05,2.88-.35,90.56,70.8,243.6,44.36,245.13,44.08,12.05-2.57,20.67-7.83,25.55-15.65,6.94-11.12,3.92-23.68,3.88-23.81-6.19-26.31-27.11-40.76-39.04-47.04-5.1-2.68-10.27-4.09-15.38-4.18-17.59-.4-21.36,12.91-21.52,13.47l-.36,1.33-1.37.18c-90.22,11.13-197.72-23.23-198.79-23.58-1.08-.35-1.67-1.5-1.32-2.58.35-1.08,1.51-1.67,2.58-1.32,1.06.34,106.72,34.1,195.77,23.57,1.59-3.96,7.57-15.17,24.4-15.17.22,0,.45,0,.68,0,5.75.1,11.54,1.67,17.21,4.65,12.54,6.6,34.56,21.83,41.12,49.7.14.55,3.46,14.36-4.39,26.94-5.49,8.79-14.99,14.68-28.24,17.5-.69.13-29.5,5.11-69.44,5.11Z"/>
      </g>
      <path class="cls-3" d="M644.41,243.48c-8.6,0-13.82-.65-14.03-.68-1.12-.15-1.91-1.18-1.76-2.3s1.17-1.91,2.3-1.76c.8.11,79.79,9.84,135.04-49.81.77-.83,2.07-.88,2.9-.11.83.77.88,2.07.11,2.9-42.54,45.93-98.76,51.77-124.56,51.77Z"/>
      <path class="cls-3" d="M680.05,208.98c-5.75,0-11.42-3.9-11.72-4.11-.93-.65-1.15-1.92-.51-2.85.64-.93,1.92-1.16,2.85-.51,2.04,1.41,8.17,4.67,12.08,2.82,2.52-1.19,4.01-4.46,4.43-9.69.09-1.13,1.1-1.96,2.21-1.88,1.13.09,1.97,1.08,1.88,2.21-.54,6.81-2.82,11.22-6.77,13.08-1.43.67-2.94.94-4.45.94Z"/>
      <path class="cls-3" d="M707.54,196.85c-4.87,0-9.51-3.71-10.12-4.23-.87-.72-.99-2.01-.27-2.88.72-.87,2.02-.99,2.89-.27,1.53,1.26,6.18,4.26,9.21,2.95,2.25-.97,3.64-4.39,4.01-9.91.07-1.13,1.08-1.95,2.18-1.91,1.13.08,1.98,1.05,1.91,2.18-.49,7.26-2.67,11.76-6.49,13.4-1.08.47-2.2.66-3.31.66Z"/>
    </g>
  </g>
</svg>